<svg xmlns="http://www.w3.org/2000/svg" viewBox="0 0 64 64" width="64" height="64">
  <defs>
    <linearGradient id="g" x1="0" y1="0" x2="1" y2="1">
      <stop offset="0" stop-color="#7B5CF5"/>
      <stop offset="1" stop-color="#5B8DEF"/>
    </linearGradient>
  </defs>
  <rect width="64" height="64" rx="17" fill="url(#g)"/>
  <path d="M41.6 42.2a14.6 14.6 0 0 1-9.9 3.6c-8.6 0-14.7-5.8-14.7-13.8S23.1 18.2 31.7 18.2a14.6 14.6 0 0 1 9.9 3.6l-3.9 4.4a8.9 8.9 0 0 0-5.9-2.2c-4.9 0-8.3 3.3-8.3 8s3.4 8 8.3 8a8.9 8.9 0 0 0 5.9-2.2z" fill="#FFFFFF"/>
</svg>
